<svg xmlns="http://www.w3.org/2000/svg" width="19.844" height="19.844" viewBox="0 0 19.844 19.844">
  <path id="fi-rr-box-alt" d="M15.71,0H4.134A4.139,4.139,0,0,0,0,4.134V15.71a4.139,4.139,0,0,0,4.134,4.134H15.71a4.139,4.139,0,0,0,4.134-4.134V4.134A4.139,4.139,0,0,0,15.71,0Zm2.48,4.134H12.4V1.654H15.71A2.48,2.48,0,0,1,18.19,4.134ZM9.1,1.654h1.654V5.788a.827.827,0,1,1-1.654,0Zm-4.961,0H7.441v2.48H1.654a2.48,2.48,0,0,1,2.48-2.48ZM15.71,18.19H4.134a2.48,2.48,0,0,1-2.48-2.48V5.788H7.441a2.48,2.48,0,0,0,4.961,0H18.19V15.71A2.48,2.48,0,0,1,15.71,18.19Zm.827-2.48a.827.827,0,0,1-.827.827h-2.48a.827.827,0,0,1,0-1.654h2.48A.827.827,0,0,1,16.536,15.71Z" fill="#7a81e5"/>
</svg>
