<svg xmlns="http://www.w3.org/2000/svg" width="21.051" height="21.051" viewBox="0 0 21.051 21.051">
  <g id="fi-rr-sign-in" transform="translate(0 21.051) rotate(-90)">
    <path id="Path_17699" data-name="Path 17699" d="M6.14,19.3H4.386a2.631,2.631,0,0,1-2.631-2.631V4.386A2.631,2.631,0,0,1,4.386,1.754H6.14A.877.877,0,0,0,6.14,0H4.386A4.391,4.391,0,0,0,0,4.386v12.28a4.391,4.391,0,0,0,4.386,4.386H6.14a.877.877,0,1,0,0-1.754Z" fill="#00c2ff"/>
    <path id="Path_17700" data-name="Path 17700" d="M9.791,5.257,5.767,9.279a2.637,2.637,0,0,0,0,3.721L9.79,17.023a.877.877,0,1,0,1.24-1.24L7.266,12.017H20.788a.877.877,0,0,0,0-1.754H7.266L11.031,6.5a.877.877,0,1,0-1.24-1.24Z" transform="translate(-0.614 -0.614)" fill="#00c2ff"/>
  </g>
</svg>
