<svg xmlns="http://www.w3.org/2000/svg" width="16.885" height="20.34" viewBox="0 0 16.885 20.34">
  <g id="receipt" transform="translate(-43.481)">
    <g id="Group_6604" data-name="Group 6604" transform="translate(43.481)">
      <g id="Group_6603" data-name="Group 6603" transform="translate(0)">
        <path id="Path_17736" data-name="Path 17736" d="M57.688,1.543,55.606.344l-2.082,1.2L51.441.344l-2.082,1.2L46.681,0V15.994h-3.2v2.15a2.2,2.2,0,0,0,2.2,2.2H58.17a2.2,2.2,0,0,0,2.2-2.2V0Zm-12.01,17.6a1,1,0,0,1-1-1v-.957h11.3v.957a2.184,2.184,0,0,0,.243,1Zm12.493,0a1,1,0,0,1-1-1v-2.15H47.873V2.064l1.486.856,2.082-1.2,2.082,1.2,2.082-1.2,2.082,1.2,1.486-.856v16.08h0A1,1,0,0,1,58.17,19.147Z" transform="translate(-43.481)" fill="#233972"/>
      </g>
    </g>
    <g id="Group_6606" data-name="Group 6606" transform="translate(49.066 5.382)">
      <g id="Group_6605" data-name="Group 6605">
        <rect id="Rectangle_2794" data-name="Rectangle 2794" width="8.915" height="1.193" fill="#233972"/>
      </g>
    </g>
    <g id="Group_6608" data-name="Group 6608" transform="translate(49.066 7.657)">
      <g id="Group_6607" data-name="Group 6607">
        <rect id="Rectangle_2795" data-name="Rectangle 2795" width="8.915" height="1.193" fill="#233972"/>
      </g>
    </g>
    <g id="Group_6610" data-name="Group 6610" transform="translate(49.066 9.931)">
      <g id="Group_6609" data-name="Group 6609">
        <rect id="Rectangle_2796" data-name="Rectangle 2796" width="4.457" height="1.193" fill="#233972"/>
      </g>
    </g>
  </g>
</svg>
