<svg xmlns="http://www.w3.org/2000/svg" width="17.897" height="24.308" viewBox="0 0 17.897 24.308">
  <path id="Icon_metro-bitcoin" data-name="Icon metro-bitcoin" d="M23.376,11.517A3.292,3.292,0,0,1,21.557,15.1a4.17,4.17,0,0,1,2.43,1.43,4.116,4.116,0,0,1,.625,2.972,5.25,5.25,0,0,1-.451,1.736,3.832,3.832,0,0,1-.9,1.236,4.558,4.558,0,0,1-1.347.812,8.207,8.207,0,0,1-1.687.479,16.733,16.733,0,0,1-2.021.208v3.541H16.072V24.029q-1.111,0-1.694-.014v3.5H12.239V23.974q-.25,0-.75-.007t-.764-.007H7.948l.43-2.541H9.92a.742.742,0,0,0,.805-.708V11.128a1.1,1.1,0,0,0-1.236-.944H7.948V7.906l2.944.014q.889,0,1.347-.014v-3.5h2.139v3.43q1.139-.028,1.694-.028v-3.4h2.139v3.5a12.389,12.389,0,0,1,1.944.312,6.315,6.315,0,0,1,1.569.625A3.181,3.181,0,0,1,22.87,9.927a3.544,3.544,0,0,1,.507,1.59Zm-2.986,7.568a1.853,1.853,0,0,0-.208-.889,2.082,2.082,0,0,0-.514-.639,2.637,2.637,0,0,0-.8-.424,6.742,6.742,0,0,0-.91-.257,8.211,8.211,0,0,0-1.028-.125q-.611-.042-.958-.042t-.9.014q-.548.014-.66.014v4.694q.111,0,.514.007t.667.007q.264,0,.736-.021t.812-.056q.34-.035.792-.118a5.315,5.315,0,0,0,.771-.194,4.719,4.719,0,0,0,.66-.292,1.924,1.924,0,0,0,.549-.417,1.963,1.963,0,0,0,.34-.555,1.841,1.841,0,0,0,.132-.708Zm-.986-6.61a1.823,1.823,0,0,0-.174-.812,1.935,1.935,0,0,0-.424-.583,2.076,2.076,0,0,0-.667-.389,4.773,4.773,0,0,0-.764-.229,7.646,7.646,0,0,0-.854-.111q-.507-.042-.805-.035l-.75.014-.548.007V14.6l.479.007q.41.007.646,0t.694-.028A5.873,5.873,0,0,0,17,14.5q.306-.056.715-.153a2.355,2.355,0,0,0,.674-.257,3.813,3.813,0,0,0,.514-.375,1.336,1.336,0,0,0,.375-.535,1.926,1.926,0,0,0,.125-.708Z" transform="translate(-7.348 -3.807)" fill="none" stroke="#233972" stroke-linecap="round" stroke-linejoin="round" stroke-width="1.2"/>
</svg>
