<svg xmlns="http://www.w3.org/2000/svg" width="19.458" height="19.722" viewBox="0 0 19.458 19.722">
  <g id="budgeting" transform="translate(-3.379 0.05)">
    <path id="Path_17737" data-name="Path 17737" d="M22.15,10.071H18.325a6.056,6.056,0,0,0-.317-1.346h4.2a.577.577,0,0,0,.577-.571A8.054,8.054,0,0,0,14.729,0a.577.577,0,0,0-.577.577V4.983a6.058,6.058,0,0,0-1.314-.273V2.535a.577.577,0,0,0-.577-.577,8.832,8.832,0,1,0,5.355,15.856A.577.577,0,0,0,17.723,17l-1.331-1.719a6.152,6.152,0,0,0,1.031-1.235l1.661,2.146a.577.577,0,0,0,.807.105,7.166,7.166,0,0,0,2.836-5.645A.577.577,0,0,0,22.15,10.071ZM15.306,1.178a6.9,6.9,0,0,1,6.309,6.393H17.448A6.153,6.153,0,0,0,15.306,5.5Zm1.135,16.054a7.6,7.6,0,0,1-4.18,1.236,7.678,7.678,0,0,1-.577-15.334V4.711a6.106,6.106,0,1,0,3.789,11.27Zm-4.18-1.49a4.952,4.952,0,1,1,4.952-4.952A4.958,4.958,0,0,1,12.261,15.742Zm7.369-.729L17.993,12.9a6.062,6.062,0,0,0,.359-1.672h3.187A6,6,0,0,1,19.63,15.013Z" fill="#233972" stroke="#fff" stroke-width="0.1"/>
    <path id="Path_17738" data-name="Path 17738" d="M175.884,182.819h-1.239a.536.536,0,0,1,0-1.072h1.2a.807.807,0,0,1,.575.261.577.577,0,0,0,.842-.789,1.965,1.965,0,0,0-1.415-.626v-.5a.577.577,0,1,0-1.154,0v.5a1.69,1.69,0,1,0-.043,3.38h1.239a.536.536,0,1,1-.008,1.072h-1.3a.815.815,0,0,1-.448-.152.577.577,0,1,0-.658.948,1.963,1.963,0,0,0,1.212.358v.5a.577.577,0,1,0,1.154,0v-.5a1.69,1.69,0,1,0,.043-3.38Z" transform="translate(-163.003 -172.606)" fill="#233972" stroke="#fff" stroke-width="0.1"/>
  </g>
</svg>
