<svg xmlns="http://www.w3.org/2000/svg" width="17.45" height="29.361" viewBox="0 0 17.45 29.361">
  <g id="business" transform="translate(0)">
    <path id="Path_17717" data-name="Path 17717" d="M48.814,156.313v-3.422a.786.786,0,0,0-.785-.785H38a.786.786,0,0,0-.785.785v3.422A.786.786,0,0,0,38,157.1H48.029A.786.786,0,0,0,48.814,156.313Zm-.861-.076H38.08v-3.271h9.873v3.271Zm0,0" transform="translate(-35.113 -143.383)" fill="#233972"/>
    <path id="Path_17718" data-name="Path 17718" d="M53.042,254.5a1.48,1.48,0,1,0,1.48,1.48A1.481,1.481,0,0,0,53.042,254.5Zm0,2.1a.619.619,0,1,1,.619-.619A.62.62,0,0,1,53.042,256.6Zm0,0" transform="translate(-48.634 -239.909)" fill="#233972"/>
    <path id="Path_17719" data-name="Path 17719" d="M113.988,254.5a1.48,1.48,0,1,0,1.48,1.48A1.481,1.481,0,0,0,113.988,254.5Zm0,2.1a.619.619,0,1,1,.619-.619A.62.62,0,0,1,113.988,256.6Zm0,0" transform="translate(-106.085 -239.909)" fill="#233972"/>
    <path id="Path_17720" data-name="Path 17720" d="M174.929,257.463a1.48,1.48,0,1,0-1.48-1.48A1.482,1.482,0,0,0,174.929,257.463Zm0-2.1a.619.619,0,1,1-.619.619A.62.62,0,0,1,174.929,255.364Zm0,0" transform="translate(-163.531 -239.909)" fill="#233972"/>
    <path id="Path_17721" data-name="Path 17721" d="M53.042,313.207a1.48,1.48,0,1,0,1.48,1.48A1.481,1.481,0,0,0,53.042,313.207Zm0,2.1a.619.619,0,1,1,.619-.619A.62.62,0,0,1,53.042,315.306Zm0,0" transform="translate(-48.634 -295.246)" fill="#233972"/>
    <path id="Path_17722" data-name="Path 17722" d="M113.988,313.207a1.48,1.48,0,1,0,1.48,1.48A1.481,1.481,0,0,0,113.988,313.207Zm0,2.1a.619.619,0,1,1,.619-.619A.62.62,0,0,1,113.988,315.306Zm0,0" transform="translate(-106.085 -295.246)" fill="#233972"/>
    <path id="Path_17723" data-name="Path 17723" d="M174.929,316.163a1.48,1.48,0,1,0-1.48-1.48A1.482,1.482,0,0,0,174.929,316.163Zm0-2.1a.619.619,0,1,1-.619.619A.62.62,0,0,1,174.929,314.064Zm0,0" transform="translate(-163.531 -295.242)" fill="#233972"/>
    <path id="Path_17724" data-name="Path 17724" d="M53.042,371.906a1.48,1.48,0,1,0,1.48,1.48A1.481,1.481,0,0,0,53.042,371.906Zm0,2.1a.619.619,0,1,1,.619-.619A.62.62,0,0,1,53.042,374.005Zm0,0" transform="translate(-48.634 -350.579)" fill="#233972"/>
    <path id="Path_17725" data-name="Path 17725" d="M113.988,371.906a1.48,1.48,0,1,0,1.48,1.48A1.481,1.481,0,0,0,113.988,371.906Zm0,2.1a.619.619,0,1,1,.619-.619A.62.62,0,0,1,113.988,374.005Zm0,0" transform="translate(-106.085 -350.579)" fill="#233972"/>
    <path id="Path_17726" data-name="Path 17726" d="M53.042,430.609a1.48,1.48,0,1,0,1.48,1.48A1.481,1.481,0,0,0,53.042,430.609Zm0,2.1a.619.619,0,1,1,.619-.619A.62.62,0,0,1,53.042,432.708Zm0,0" transform="translate(-48.634 -405.915)" fill="#233972"/>
    <path id="Path_17727" data-name="Path 17727" d="M113.988,430.609a1.48,1.48,0,1,0,1.48,1.48A1.481,1.481,0,0,0,113.988,430.609Zm0,2.1a.619.619,0,1,1,.619-.619A.62.62,0,0,1,113.988,432.708Zm0,0" transform="translate(-106.085 -405.915)" fill="#233972"/>
    <path id="Path_17728" data-name="Path 17728" d="M173.168,377.184a1.05,1.05,0,0,0,1.048,1.048h.9a1.05,1.05,0,0,0,1.048-1.048v-4.229a1.05,1.05,0,0,0-1.048-1.048h-.9a1.05,1.05,0,0,0-1.048,1.048Zm.861-4.229a.188.188,0,0,1,.188-.188h.9a.188.188,0,0,1,.188.188v4.229a.188.188,0,0,1-.188.187h-.9a.188.188,0,0,1-.188-.187Zm0,0" transform="translate(-163.266 -350.579)" fill="#233972"/>
    <path id="Path_17729" data-name="Path 17729" d="M17.519,10.86a.43.43,0,0,0,.43-.43V8.406a.928.928,0,0,0-.927-.927h-.717v-1.2A1.286,1.286,0,0,0,15.021,5H12.862V1.268a.845.845,0,0,0-.345-.68l-.54-.405a.926.926,0,0,0-1.105,0L10.453.5a.067.067,0,0,1-.072,0L9.962.183a.926.926,0,0,0-1.105,0L8.438.5a.068.068,0,0,1-.072,0L7.948.183a.925.925,0,0,0-1.105,0L6.424.5a.068.068,0,0,1-.072,0L5.934.183a.925.925,0,0,0-1.105,0l-.54.405a.845.845,0,0,0-.345.679V5H1.785A1.286,1.286,0,0,0,.5,6.283v10.29a.464.464,0,0,0,0,.047l.239,2.191a.43.43,0,0,0,.856-.093L1.361,16.55V6.283a.424.424,0,0,1,.424-.424h.821V7.327a.6.6,0,0,0,.6.6H13.6a.6.6,0,0,0,.6-.6V5.859h.821a.424.424,0,0,1,.424.424V16.55L14.183,28.122a.423.423,0,0,1-.421.378H3.045a.423.423,0,0,1-.421-.378L1.811,20.68a.43.43,0,0,0-.856.093l.812,7.442a1.283,1.283,0,0,0,1.277,1.145H13.761a1.283,1.283,0,0,0,1.277-1.145l.177-1.622h.827a.927.927,0,0,0,.921-.82l.983-8.455a.455.455,0,0,0,0-.05V12.356a.43.43,0,0,0-.861,0v4.887l-.98,8.43a.066.066,0,0,1-.066.059h-.733L16.3,16.62a.406.406,0,0,0,0-.047V8.339h.717a.067.067,0,0,1,.066.067v2.024a.43.43,0,0,0,.431.43ZM3.944,7.069H3.466V5.859h.478Zm8.057,0H4.8V1.277h0l.54-.405a.068.068,0,0,1,.072,0l.418.314a.925.925,0,0,0,1.105,0L7.359.871a.067.067,0,0,1,.072,0l.418.314a.925.925,0,0,0,1.105,0L9.373.871a.067.067,0,0,1,.072,0l.419.314a.925.925,0,0,0,1.105,0l.419-.314a.067.067,0,0,1,.072,0L12,1.277Zm1.339,0h-.478V5.859h.478Zm0,0" transform="translate(-0.5 0.001)" fill="#233972"/>
    <path id="Path_17730" data-name="Path 17730" d="M88.9,36.7h-.508a.43.43,0,0,0,0,.861H88.9a.43.43,0,0,0,0-.861Zm0,0" transform="translate(-82.949 -34.598)" fill="#233972"/>
    <path id="Path_17731" data-name="Path 17731" d="M123.223,36.7h-3.094a.43.43,0,0,0,0,.861h3.094a.43.43,0,0,0,0-.861Zm0,0" transform="translate(-112.863 -34.598)" fill="#233972"/>
    <path id="Path_17732" data-name="Path 17732" d="M88.9,66.2h-.508a.43.43,0,1,0,0,.861H88.9a.43.43,0,1,0,0-.861Zm0,0" transform="translate(-82.949 -62.403)" fill="#233972"/>
    <path id="Path_17733" data-name="Path 17733" d="M123.223,66.2h-3.094a.43.43,0,0,0,0,.861h3.094a.43.43,0,1,0,0-.861Zm0,0" transform="translate(-112.863 -62.403)" fill="#233972"/>
    <path id="Path_17734" data-name="Path 17734" d="M88.9,95.7h-.508a.43.43,0,1,0,0,.861H88.9a.43.43,0,1,0,0-.861Zm0,0" transform="translate(-82.949 -90.208)" fill="#233972"/>
    <path id="Path_17735" data-name="Path 17735" d="M123.223,95.7h-3.094a.43.43,0,0,0,0,.861h3.094a.43.43,0,1,0,0-.861Zm0,0" transform="translate(-112.863 -90.208)" fill="#233972"/>
  </g>
</svg>
