<svg xmlns="http://www.w3.org/2000/svg" width="17.594" height="17.624" viewBox="0 0 17.594 17.624">
  <g id="fi-rr-comment-alt" transform="translate(0.1 0.1)">
    <path id="Path_17709" data-name="Path 17709" d="M14.5,0H2.9A2.9,2.9,0,0,0,0,2.9v8.7a2.9,2.9,0,0,0,2.9,2.9H5l3.226,2.727a.725.725,0,0,0,.936,0l3.23-2.727h2.1a2.9,2.9,0,0,0,2.9-2.9V2.9A2.9,2.9,0,0,0,14.5,0Zm1.45,11.6a1.45,1.45,0,0,1-1.45,1.45h-2.1a1.45,1.45,0,0,0-.936.343L8.7,15.72,5.938,13.388h0A1.45,1.45,0,0,0,5,13.046H2.9A1.45,1.45,0,0,1,1.45,11.6V2.9A1.45,1.45,0,0,1,2.9,1.45H14.5a1.45,1.45,0,0,1,1.45,1.45Z" fill="#233972" stroke="#fff" stroke-width="0.2"/>
    <path id="Path_17710" data-name="Path 17710" d="M6.725,6.45h3.624a.725.725,0,1,0,0-1.45H6.725a.725.725,0,0,0,0,1.45Z" transform="translate(-1.651 -1.376)" fill="#233972" stroke="#fff" stroke-width="0.2"/>
    <path id="Path_17711" data-name="Path 17711" d="M13.972,9H6.725a.725.725,0,1,0,0,1.45h7.248a.725.725,0,1,0,0-1.45Z" transform="translate(-1.651 -2.477)" fill="#233972" stroke="#fff" stroke-width="0.2"/>
    <path id="Path_17712" data-name="Path 17712" d="M13.972,13H6.725a.725.725,0,0,0,0,1.45h7.248a.725.725,0,0,0,0-1.45Z" transform="translate(-1.651 -3.578)" fill="#233972" stroke="#fff" stroke-width="0.2"/>
  </g>
</svg>
