<svg xmlns="http://www.w3.org/2000/svg" width="16.885" height="22.346" viewBox="0 0 16.885 22.346">
  <path id="fi-rr-document-signed" d="M18.051,2.842,16.544,1.333A4.522,4.522,0,0,0,13.325,0H7.551A4.557,4.557,0,0,0,3,4.551V17.295a4.557,4.557,0,0,0,4.551,4.551h7.282a4.557,4.557,0,0,0,4.551-4.551V6.06a4.522,4.522,0,0,0-1.334-3.218ZM16.764,4.129a2.669,2.669,0,0,1,.345.422H14.833V2.276a2.822,2.822,0,0,1,.423.346Zm.8,13.166a2.731,2.731,0,0,1-2.731,2.731H7.551a2.731,2.731,0,0,1-2.731-2.731V4.551A2.731,2.731,0,0,1,7.551,1.821h5.462V4.551a1.821,1.821,0,0,0,1.821,1.821h2.731Zm-2.731-9.1a.91.91,0,1,1,0,1.821H7.551a.91.91,0,0,1,0-1.821Zm.91,4.551a.91.91,0,0,1-.91.91H7.551a.91.91,0,0,1,0-1.821h7.282A.91.91,0,0,1,15.744,12.744Zm-.175,3.107a.91.91,0,0,1-.2,1.269,5.884,5.884,0,0,1-3.146,1.086,2.96,2.96,0,0,1-1.821-.637c-.3-.2-.412-.273-.637-.273a3.6,3.6,0,0,0-1.668.723A.91.91,0,0,1,7,16.572a5.335,5.335,0,0,1,2.776-1.1,2.754,2.754,0,0,1,1.668.6,1.226,1.226,0,0,0,.786.314,4.174,4.174,0,0,0,2.073-.736A.91.91,0,0,1,15.569,15.85Z" transform="translate(-2.75 0.25)" fill="#233972" stroke="#fff" stroke-width="0.5"/>
</svg>
