<svg xmlns="http://www.w3.org/2000/svg" width="22.021" height="22.134" viewBox="0 0 22.021 22.134">
  <g id="XMLID_1125_" transform="translate(0.15 0.274)">
    <g id="XMLID_281_" transform="translate(0 0.001)">
      <path id="XMLID_283_" d="M251.133,188.252a.52.52,0,0,1,.558.468.424.424,0,1,0,.848,0,1.331,1.331,0,0,0-.982-1.254v-.059a.424.424,0,1,0-.848,0v.059a1.331,1.331,0,0,0-.982,1.254,1.365,1.365,0,0,0,1.406,1.316.475.475,0,1,1-.558.468.424.424,0,1,0-.848,0,1.331,1.331,0,0,0,.982,1.254v.059a.424.424,0,1,0,.848,0v-.059a1.331,1.331,0,0,0,.982-1.254,1.365,1.365,0,0,0-1.406-1.316.475.475,0,1,1,0-.935Z" transform="translate(-239.138 -179.054)" fill="#233972" stroke="#233972" stroke-width="0.3"/>
      <path id="XMLID_1217_" d="M21.645,14.165a1.621,1.621,0,0,0-2.321-.981,7.471,7.471,0,0,0-.306-3.6.424.424,0,1,0-.8.275,6.619,6.619,0,0,1,.013,4.24l-3.379,3a3.407,3.407,0,0,1-.68.47,1.627,1.627,0,0,0-.877-1.86L10.3,14.273a5.441,5.441,0,0,0-4.2-.2l-.3.112a6.549,6.549,0,0,1,1.552-6.84l2.993-2.993h3.314l2.536,2.536a.424.424,0,0,0,.6-.6L14.365,3.865l.876-2.521a.763.763,0,0,0-1.26-.79l-.005.005a.45.45,0,0,1-.636,0,1.911,1.911,0,0,0-2.7,0,.45.45,0,0,1-.636,0,.763.763,0,0,0-1.259.791l.88,2.515-2.88,2.88A7.426,7.426,0,0,0,5,14.478l-.668.245a1.214,1.214,0,0,0-.964-.476H1.216A1.217,1.217,0,0,0,0,15.463v5.032A1.217,1.217,0,0,0,1.216,21.71H12.391a6.672,6.672,0,0,0,4.674-1.9l4.152-4.035A1.619,1.619,0,0,0,21.645,14.165ZM10.323,1.539a1.289,1.289,0,0,0,.918-.38,1.062,1.062,0,0,1,1.5,0,1.3,1.3,0,0,0,1.6.185l-.75,2.16H10.4L9.642,1.347A1.289,1.289,0,0,0,10.323,1.539ZM.848,20.494V15.463a.368.368,0,0,1,.367-.367H3.364a.368.368,0,0,1,.367.367v5.032a.368.368,0,0,1-.367.367H1.216a.368.368,0,0,1-.367-.367Zm19.778-5.325L16.474,19.2a5.828,5.828,0,0,1-4.083,1.657H4.522a1.211,1.211,0,0,0,.057-.367v-4.96l1.81-.665a4.589,4.589,0,0,1,3.544.168l2.993,1.434a.78.78,0,0,1,.328,1.112.779.779,0,0,1-.9.336L8.376,16.654a.424.424,0,0,0-.257.808L12.1,18.727a1.633,1.633,0,0,0,.5.077l.059,0a4.247,4.247,0,0,0,2.762-1.072l4.16-3.695a.777.777,0,0,1,.675-.178.774.774,0,0,1,.378,1.312Z" transform="translate(0 -0.001)" fill="#233972" stroke="#233972" stroke-width="0.3"/>
      <path id="XMLID_1298_" d="M409.163,179.838a.424.424,0,1,0-.3-.124A.425.425,0,0,0,409.163,179.838Z" transform="translate(-391.408 -171.401)" fill="#233972" stroke="#233972" stroke-width="0.3"/>
    </g>
  </g>
</svg>
