<svg xmlns="http://www.w3.org/2000/svg" width="23.831" height="23.78" viewBox="0 0 23.831 23.78">
  <g id="Group_6676" data-name="Group 6676" transform="translate(-148.65 -642.65)">
    <g id="Layer_2" data-name="Layer 2" transform="translate(149 643)">
      <g id="Capa_1" data-name="Capa 1">
        <path id="Path_17741" data-name="Path 17741" d="M15.56,9a.5.5,0,0,0,.5-.5v-6A2.52,2.52,0,0,0,13.55,0h-11A2.52,2.52,0,0,0,0,2.51V20.57a2.51,2.51,0,0,0,2.51,2.51h11a2.51,2.51,0,0,0,2.51-2.51v-6a.51.51,0,0,0-1,0v6a1.51,1.51,0,0,1-1.5,1.51h-11A1.52,1.52,0,0,1,1,20.57V2.51A1.52,1.52,0,0,1,2.51,1h11a1.51,1.51,0,0,1,1.5,1.51v6a.5.5,0,0,0,.55.49Z" fill="#233972" stroke="#233972" stroke-width="0.7"/>
        <path id="Path_17742" data-name="Path 17742" d="M22.58,11H6.52a.5.5,0,0,0,0,1H22.58a.5.5,0,1,0,0-1Z" fill="#233972" stroke="#233972" stroke-width="0.7"/>
        <path id="Path_17743" data-name="Path 17743" d="M22.94,11.19l-3-3a.5.5,0,0,0-.71,0,.51.51,0,0,0,0,.71l2.66,2.65L19.21,14.2a.51.51,0,0,0,0,.71.54.54,0,0,0,.36.14.5.5,0,0,0,.35-.14l3-3a.51.51,0,0,0,.02-.72Z" fill="#233972" stroke="#233972" stroke-width="0.7"/>
      </g>
    </g>
  </g>
</svg>
