<svg xmlns="http://www.w3.org/2000/svg" width="20.309" height="22.346" viewBox="0 0 20.309 22.346">
  <g id="fi-rr-settings" transform="translate(0.396 0.25)">
    <path id="Path_17707" data-name="Path 17707" d="M11.641,8a3.641,3.641,0,1,0,3.641,3.641A3.641,3.641,0,0,0,11.641,8Zm0,5.462a1.821,1.821,0,1,1,1.821-1.821A1.821,1.821,0,0,1,11.641,13.462Z" transform="translate(-1.813 -0.718)" fill="#233972" stroke="#fff" stroke-width="0.5"/>
    <path id="Path_17708" data-name="Path 17708" d="M19.491,12.653l-.4-.233a8.283,8.283,0,0,0,0-2.995l.4-.233A2.732,2.732,0,1,0,16.76,4.458l-.405.234A8.171,8.171,0,0,0,13.762,3.2V2.731a2.731,2.731,0,1,0-5.462,0V3.2A8.171,8.171,0,0,0,5.708,4.7L5.3,4.46A2.732,2.732,0,1,0,2.57,9.194l.4.233a8.283,8.283,0,0,0,0,2.995l-.4.233A2.732,2.732,0,1,0,5.3,17.388l.405-.234A8.171,8.171,0,0,0,8.3,18.648v.467a2.731,2.731,0,1,0,5.462,0v-.467a8.171,8.171,0,0,0,2.592-1.5l.407.235a2.732,2.732,0,1,0,2.731-4.733ZM17.172,9.215a6.415,6.415,0,0,1,0,3.413.91.91,0,0,0,.422,1.031l.987.57a.911.911,0,1,1-.91,1.577l-.989-.572a.91.91,0,0,0-1.106.15,6.357,6.357,0,0,1-2.952,1.707.91.91,0,0,0-.684.882v1.141a.91.91,0,1,1-1.821,0v-1.14a.91.91,0,0,0-.684-.882,6.357,6.357,0,0,1-2.951-1.71.91.91,0,0,0-1.106-.15l-.987.571a.91.91,0,1,1-.91-1.577l.987-.57a.91.91,0,0,0,.422-1.031,6.415,6.415,0,0,1,0-3.413.91.91,0,0,0-.423-1.028l-.987-.57a.911.911,0,0,1,.91-1.577l.989.572a.91.91,0,0,0,1.105-.147A6.357,6.357,0,0,1,9.437,4.756a.91.91,0,0,0,.684-.886V2.731a.91.91,0,1,1,1.821,0V3.87a.91.91,0,0,0,.684.882,6.357,6.357,0,0,1,2.952,1.71.91.91,0,0,0,1.106.15l.987-.571a.91.91,0,1,1,.91,1.577l-.987.57a.91.91,0,0,0-.421,1.028Z" transform="translate(-1.203)" fill="#233972" stroke="#fff" stroke-width="0.5"/>
  </g>
</svg>
