<svg xmlns="http://www.w3.org/2000/svg" width="17.672" height="15.167" viewBox="0 0 17.672 15.167">
  <g id="switch" transform="translate(-8 -15)">
    <path id="Path_17739" data-name="Path 17739" d="M8.736,19.583H23.158l-1.32,1.494a.913.913,0,0,0,0,1.178.677.677,0,0,0,1.041,0l2.577-2.917a.913.913,0,0,0,0-1.178l-2.577-2.917a.677.677,0,0,0-1.041,0,.913.913,0,0,0,0,1.178l1.32,1.494H8.736a.84.84,0,0,0,0,1.667Z" fill="#233971"/>
    <path id="Path_17740" data-name="Path 17740" d="M24.936,33.917H10.514l1.32-1.494a.913.913,0,0,0,0-1.178.677.677,0,0,0-1.041,0L8.216,34.161a.913.913,0,0,0,0,1.178l2.577,2.917a.677.677,0,0,0,1.041,0,.913.913,0,0,0,0-1.178l-1.32-1.494H24.936a.84.84,0,0,0,0-1.667Z" transform="translate(0 -8.333)" fill="#233971"/>
  </g>
</svg>
