<svg xmlns="http://www.w3.org/2000/svg" width="22.346" height="16.885" viewBox="0 0 22.346 16.885">
  <g id="fi-rr-credit-card" transform="translate(0.25 0.25)">
    <ellipse id="Ellipse_417" data-name="Ellipse 417" cx="1" cy="1.5" rx="1" ry="1.5" transform="translate(3.923 10.09)" fill="#233972" stroke="#fff" stroke-width="0.5"/>
    <path id="Path_17703" data-name="Path 17703" d="M17.295,3H4.551A4.507,4.507,0,0,0,0,7.551v7.282a4.507,4.507,0,0,0,4.551,4.551H17.295a4.507,4.507,0,0,0,4.551-4.551V7.551A4.507,4.507,0,0,0,17.295,3ZM4.551,4.821H17.295a2.682,2.682,0,0,1,2.731,2.731H1.821A2.682,2.682,0,0,1,4.551,4.821ZM17.295,17.564H4.551a2.682,2.682,0,0,1-2.731-2.731V9.372H20.026v5.462A2.682,2.682,0,0,1,17.295,17.564Z" transform="translate(0 -3)" fill="#233972" stroke="#fff" stroke-width="0.5"/>
  </g>
</svg>
