<svg xmlns="http://www.w3.org/2000/svg" width="18.352" height="18.329" viewBox="0 0 18.352 18.329">
  <path id="fi-rr-bank" d="M18,17.249a.75.75,0,0,1-.75.75H.75a.75.75,0,0,1,0-1.5h16.5A.75.75,0,0,1,18,17.249ZM.218,6.413A1.832,1.832,0,0,1,.333,4.489,3.537,3.537,0,0,1,1.584,3.364L7.209.436a3.88,3.88,0,0,1,3.58,0l5.625,2.93h0a3.537,3.537,0,0,1,1.251,1.125,1.832,1.832,0,0,1,.115,1.924A2.035,2.035,0,0,1,15.968,7.5h-.219v6h.75a.75.75,0,1,1,0,1.5H1.5a.75.75,0,1,1,0-1.5h.75v-6H2.031A2.035,2.035,0,0,1,.218,6.413ZM3.749,13.5H6v-6H3.749Zm3.75-6v6h3v-6Zm6.75,0H12v6h2.25ZM1.547,5.718A.538.538,0,0,0,2.031,6H15.968a.538.538,0,0,0,.484-.281.339.339,0,0,0-.018-.375,2.025,2.025,0,0,0-.712-.648h0L10.1,1.765a2.382,2.382,0,0,0-2.194,0L2.278,4.7a2.034,2.034,0,0,0-.712.649.339.339,0,0,0-.019.374Z" transform="translate(0.177 0.18)" fill="#233972" stroke="#fff" stroke-width="0.3"/>
</svg>
