<svg xmlns="http://www.w3.org/2000/svg" width="114.916" height="107.495" viewBox="0 0 114.916 107.495">
  <g id="bank" transform="translate(-8 -24.033)">
    <ellipse id="Ellipse_418" data-name="Ellipse 418" cx="3.707" cy="5.56" rx="3.707" ry="5.56" transform="translate(30.242 66.656)" fill="#00c2ff"/>
    <path id="Path_17754" data-name="Path 17754" d="M121.063,79.63a1.853,1.853,0,0,0-1.854,1.853,9.283,9.283,0,0,1-7.414,9.082V75a24.793,24.793,0,0,0-5.141-15.2,25.244,25.244,0,0,0-10.994-8.195,20.388,20.388,0,1,0-38.7-1.631H55.544A24.1,24.1,0,0,0,32.1,31.439a1.853,1.853,0,0,0-1.853,1.853V52.138A25.03,25.03,0,0,0,15.43,74.07h-.943A6.494,6.494,0,0,0,8,80.557v9.267a6.494,6.494,0,0,0,6.487,6.487h.943a25.022,25.022,0,0,0,22.226,23.94v4.789a6.494,6.494,0,0,0,6.487,6.487H46a6.494,6.494,0,0,0,6.487-6.487v-4.634H74.726v4.634a6.494,6.494,0,0,0,6.487,6.487h1.853a6.494,6.494,0,0,0,6.487-6.487v-4.789A25.021,25.021,0,0,0,111.8,95.385V94.324a12.994,12.994,0,0,0,11.121-12.84,1.853,1.853,0,0,0-1.854-1.853Zm-44.484-51.9A16.718,16.718,0,0,1,91.611,51.691a1.763,1.763,0,0,0-.2.4,16.6,16.6,0,0,1-7.189,7.154H68.936a16.681,16.681,0,0,1,7.643-31.509Zm31.509,67.652a21.311,21.311,0,0,1-20.463,21.3,1.85,1.85,0,0,0-1.779,1.851v6.508a2.783,2.783,0,0,1-2.78,2.78H81.213a2.783,2.783,0,0,1-2.78-2.78v-6.487a1.853,1.853,0,0,0-1.853-1.853H50.63a1.853,1.853,0,0,0-1.853,1.853v6.487a2.783,2.783,0,0,1-2.78,2.78H44.143a2.783,2.783,0,0,1-2.78-2.78v-6.508a1.85,1.85,0,0,0-1.782-1.851,21.311,21.311,0,0,1-20.46-21.3v-.927A1.854,1.854,0,0,0,17.267,92.6h-2.78a2.783,2.783,0,0,1-2.78-2.78V80.557a2.783,2.783,0,0,1,2.78-2.78h2.78a1.853,1.853,0,0,0,1.853-1.853V75A21.326,21.326,0,0,1,32.761,55.1a1.85,1.85,0,0,0,1.188-1.729V35.23a20.4,20.4,0,0,1,18.25,16.9,1.853,1.853,0,0,0,1.828,1.548h4.017a1.787,1.787,0,0,0,.354-.035c.3.591.63,1.17.989,1.731a20.385,20.385,0,0,0,3.2,3.865h-8.25a1.853,1.853,0,1,0,0,3.707h37.07a1.853,1.853,0,1,0,0-3.707h-.836a20.385,20.385,0,0,0,3.2-3.865c.09-.139.176-.28.259-.422A21.406,21.406,0,0,1,108.089,75Z" fill="#00c2ff"/>
    <text id="_" data-name="₦" transform="translate(85.856 53.162)" fill="#00c2ff" font-size="25" font-family="Helvetica" letter-spacing="0.012em"><tspan x="-19.971" y="0">₦</tspan></text>
  </g>
</svg>
