<svg xmlns="http://www.w3.org/2000/svg" width="181.239" height="198.708" viewBox="0 0 181.239 198.708">
  <g id="confetti" transform="translate(189.203 99.348) rotate(135)">
    <g id="Group_6481" data-name="Group 6481" transform="translate(0.011 124.789)">
      <path id="Path_15484" data-name="Path 15484" d="M4.127,470.451a4.117,4.117,0,0,1-2.911-7.027L8.7,455.94a4.116,4.116,0,0,1,5.821,5.821l-7.484,7.484A4.1,4.1,0,0,1,4.127,470.451Z" transform="translate(-0.011 -454.734)" fill="#00429d"/>
    </g>
    <path id="Path_15485" data-name="Path 15485" d="M4.671,472.694a4.109,4.109,0,0,0,5.748-.067l7.484-7.484a4.114,4.114,0,0,0,.066-5.748Z" transform="translate(-3.382 -333.327)" fill="#00347b"/>
    <g id="Group_6483" data-name="Group 6483" transform="translate(0.855 77.754)">
      <g id="Group_6482" data-name="Group 6482">
        <path id="Path_15486" data-name="Path 15486" d="M3.173,316.81a12.283,12.283,0,0,1,2.681-4.016l2.929-2.929,5.564-.181.28-5.664,5.792-5.792,4.367-.6,1.4-5.173,5.932-5.932s7.054-4.448,8.662-2.84L64.65,307.554c1.608,1.607-2.91,8.732-2.91,8.732L55.9,322.125l-5.154.591-.661,5.224-5.78,5.78-4.623.06-1.245,5.808-2.894,2.894a12.288,12.288,0,0,1-3.655,2.526c-1.609.723-30.557-23.725-28.715-28.2Z" transform="translate(-3.089 -283.336)" fill="#7dd5f4"/>
      </g>
    </g>
    <path id="Path_15487" data-name="Path 15487" d="M86.689,328.346,49.817,365.218c7.3,6.7,15.159,12.815,15.976,12.448a12.284,12.284,0,0,0,3.655-2.526l2.894-2.894,1.245-5.808,4.623-.06,5.78-5.78.661-5.224,5.154-.591,5.839-5.839s4.518-7.124,2.91-8.732Z" transform="translate(-36.138 -238.241)" fill="#4793ff"/>
    <path id="Path_15488" data-name="Path 15488" d="M0,0H8.233V41.987H0Z" transform="translate(18.162 92.652) rotate(-45)" fill="#4793ff"/>
    <path id="Path_15489" data-name="Path 15489" d="M117.36,281.424a4.116,4.116,0,0,0-5.821,0l-2.91,2.91,29.689,29.689,2.91-2.91a4.116,4.116,0,0,0,0-5.821Z" transform="translate(-78.811 -203.32)" fill="#4793ff"/>
    <path id="Path_15490" data-name="Path 15490" d="M1.24,402.931a12.376,12.376,0,0,0,1.644,13.286L16.668,430a12.367,12.367,0,0,0,13.285,1.643Z" transform="translate(-0.005 -292.358)" fill="#4793ff"/>
    <path id="Path_15491" data-name="Path 15491" d="M0,0H8.233V41.987H0Z" transform="translate(6.519 104.292) rotate(-45)" fill="#4793ff"/>
    <g id="Group_6484" data-name="Group 6484" transform="translate(64.351 71.81)">
      <path id="Path_15492" data-name="Path 15492" d="M306.516,284.753a4.1,4.1,0,0,1-2.87-1.165,48.047,48.047,0,0,0-33.676-13.676,48.608,48.608,0,0,0-28.921,9.616,4.116,4.116,0,1,1-4.929-6.594,56.893,56.893,0,0,1,33.85-11.255,56.238,56.238,0,0,1,39.415,16.007,4.116,4.116,0,0,1-2.87,7.067Z" transform="translate(-234.469 -261.679)" fill="#ca75f5"/>
    </g>
    <g id="Group_6485" data-name="Group 6485" transform="translate(31.499 16.328)">
      <path id="Path_15493" data-name="Path 15493" d="M133.548,114.431a4.117,4.117,0,0,1-3.311-6.557,26.208,26.208,0,0,0-12.685-40.357,4.116,4.116,0,0,1,2.644-7.8,34.44,34.44,0,0,1,16.67,53.035A4.11,4.11,0,0,1,133.548,114.431Z" transform="translate(-114.756 -59.501)" fill="#fdbf00"/>
    </g>
    <g id="Group_6486" data-name="Group 6486" transform="translate(75.386 0)">
      <path id="Path_15494" data-name="Path 15494" d="M278.8,50.541a4.116,4.116,0,0,1-2.911-7.027c3.923-3.923,9.326-4.9,14.093-5.76,3.926-.709,7.634-1.379,9.735-3.48s2.771-5.809,3.48-9.735c.861-4.767,1.837-10.17,5.76-14.093,4.83-4.83,11.216-6.392,17.392-7.9A64.26,64.26,0,0,0,334.2.279a4.116,4.116,0,0,1,2.976,7.676,71.242,71.242,0,0,1-8.88,2.586c-5.309,1.3-10.324,2.524-13.526,5.726-2.1,2.1-2.771,5.809-3.48,9.735-.861,4.767-1.837,10.17-5.76,14.093s-9.326,4.9-14.093,5.76c-3.926.709-7.634,1.379-9.735,3.48A4.1,4.1,0,0,1,278.8,50.541Z" transform="translate(-274.68 0)" fill="#f87831"/>
    </g>
    <g id="Group_6487" data-name="Group 6487" transform="translate(4.95 6.313)">
      <path id="Path_15495" data-name="Path 15495" d="M323.126,35.238a4.116,4.116,0,1,0-4.116-4.116A4.124,4.124,0,0,0,323.126,35.238Z" transform="translate(-236.409 -25.907)" fill="#bee75e" fill-rule="evenodd"/>
      <path id="Path_15496" data-name="Path 15496" d="M37.6,193.176a4.116,4.116,0,1,0-4.116-4.116A4.124,4.124,0,0,0,37.6,193.176Z" transform="translate(-29.24 -140.503)" fill="#d98ff8" fill-rule="evenodd"/>
      <path id="Path_15497" data-name="Path 15497" d="M22.126,31.238a4.116,4.116,0,1,0-4.116-4.116A4.124,4.124,0,0,0,22.126,31.238Z" transform="translate(-18.01 -23.005)" fill="#7dd5f4" fill-rule="evenodd"/>
      <path id="Path_15498" data-name="Path 15498" d="M354.126,349.237a4.116,4.116,0,1,0-4.116-4.116A4.124,4.124,0,0,0,354.126,349.237Z" transform="translate(-258.901 -253.738)" fill="#ff8856" fill-rule="evenodd"/>
      <path id="Path_15499" data-name="Path 15499" d="M441.126,486.237a4.116,4.116,0,1,0-4.116-4.116A4.124,4.124,0,0,0,441.126,486.237Z" transform="translate(-322.027 -353.142)" fill="#4793ff" fill-rule="evenodd"/>
      <path id="Path_15500" data-name="Path 15500" d="M238.126,470.238a4.116,4.116,0,1,0-4.116-4.116A4.124,4.124,0,0,0,238.126,470.238Z" transform="translate(-174.735 -341.533)" fill="#ff435b" fill-rule="evenodd"/>
    </g>
    <g id="Group_6488" data-name="Group 6488" transform="translate(62.659 0)">
      <path id="Path_15501" data-name="Path 15501" d="M236.893,26.75c-.114,0-.228,0-.344-.014a4.116,4.116,0,0,1-3.763-4.442,26.381,26.381,0,0,0-3.864-16,4.116,4.116,0,1,1,6.99-4.349,34.669,34.669,0,0,1,5.078,21.027A4.117,4.117,0,0,1,236.893,26.75Z" transform="translate(-228.3 -0.002)" fill="#d98ff8"/>
    </g>
    <g id="Group_6489" data-name="Group 6489" transform="translate(100.132 49.045)">
      <path id="Path_15502" data-name="Path 15502" d="M368.973,189.64a4.117,4.117,0,0,1-1.3-8.023,56.768,56.768,0,0,1,26.879-2.18,4.116,4.116,0,1,1-1.311,8.128,48.481,48.481,0,0,0-22.965,1.863A4.106,4.106,0,0,1,368.973,189.64Z" transform="translate(-364.855 -178.722)" fill="#ff435b"/>
    </g>
    <path id="Path_15503" data-name="Path 15503" d="M256.36,238.663a4.116,4.116,0,1,0-4.116-4.116A4.124,4.124,0,0,0,256.36,238.663Z" transform="translate(-183.015 -167.195)" fill="#7dd5f4" fill-rule="evenodd"/>
    <path id="Path_15504" data-name="Path 15504" d="M467.126,88.238a4.116,4.116,0,1,0-4.116-4.116A4.124,4.124,0,0,0,467.126,88.238Z" transform="translate(-335.942 -58.05)" fill="#00cb75" fill-rule="evenodd"/>
    <g id="Group_6490" data-name="Group 6490" transform="translate(95.43 1.278)">
      <path id="Path_15505" data-name="Path 15505" d="M347.718,122.656c3.836-.818,7.769-2.088,10.812-5.131s4.312-6.976,5.13-10.811Z" transform="translate(-347.718 -78.707)" fill="#ff435b"/>
      <path id="Path_15506" data-name="Path 15506" d="M484.332,4.657l-8.9,8.9a61.252,61.252,0,0,0,7.41-2.224,4.115,4.115,0,0,0,1.491-6.677Z" transform="translate(-440.383 -4.657)" fill="#ff435b"/>
    </g>
    <path id="Path_15507" data-name="Path 15507" d="M262.39,234.761l-5.815,5.815a4.112,4.112,0,1,0,5.815-5.815Z" transform="translate(-186.157 -170.337)" fill="#4793ff" fill-rule="evenodd"/>
    <path id="Path_15508" data-name="Path 15508" d="M168.79,328.346l-5.821,5.82,14.777,14.777,2.91-2.91a4.116,4.116,0,0,0,0-5.821Z" transform="translate(-118.239 -238.241)" fill="#525cdd"/>
    <path id="Path_15509" data-name="Path 15509" d="M0,0H8.233V20.9H0Z" transform="translate(33.071 107.563) rotate(-45)" fill="#525cdd"/>
    <path id="Path_15510" data-name="Path 15510" d="M0,0H8.233V20.9H0Z" transform="translate(21.429 119.204) rotate(-45)" fill="#525cdd"/>
    <path id="Path_15511" data-name="Path 15511" d="M35.82,461.314l6.824,6.824a12.367,12.367,0,0,0,13.285,1.643L41.641,455.493Z" transform="translate(-25.983 -330.495)" fill="#525cdd"/>
  </g>
</svg>
