<svg xmlns="http://www.w3.org/2000/svg" width="79.405" height="105.892" viewBox="0 0 79.405 105.892">
  <g id="Group_6680" data-name="Group 6680" transform="translate(-144.73 -223.631)">
    <g id="Group_6679" data-name="Group 6679">
      <g id="Group_6465" data-name="Group 6465" transform="translate(101.447 -149.723)">
        <path id="Icon_awesome-file-invoice" data-name="Icon awesome-file-invoice" d="M59.554,52.936h-39.7V66.171h39.7Zm18.4-31.224L57.713,1.447A4.959,4.959,0,0,0,54.2,0H52.936V26.468H79.4V25.207A4.947,4.947,0,0,0,77.957,21.712Zm-31.638,6.41V0H4.963A4.951,4.951,0,0,0,0,4.963V100.91a4.951,4.951,0,0,0,4.963,4.963H74.442A4.951,4.951,0,0,0,79.4,100.91V33.085H51.282A4.977,4.977,0,0,1,46.319,28.122ZM13.234,14.888a1.654,1.654,0,0,1,1.654-1.654H31.431a1.654,1.654,0,0,1,1.654,1.654V18.2a1.654,1.654,0,0,1-1.654,1.654H14.888A1.654,1.654,0,0,1,13.234,18.2Zm0,13.234a1.654,1.654,0,0,1,1.654-1.654H31.431a1.654,1.654,0,0,1,1.654,1.654v3.309a1.654,1.654,0,0,1-1.654,1.654H14.888a1.654,1.654,0,0,1-1.654-1.654ZM66.171,90.985a1.654,1.654,0,0,1-1.654,1.654H47.974a1.654,1.654,0,0,1-1.654-1.654V87.676a1.654,1.654,0,0,1,1.654-1.654H64.516a1.654,1.654,0,0,1,1.654,1.654Zm0-41.357V69.479a3.308,3.308,0,0,1-3.309,3.309H16.543a3.308,3.308,0,0,1-3.309-3.309V49.628a3.308,3.308,0,0,1,3.309-3.309H62.862A3.308,3.308,0,0,1,66.171,49.628Z" transform="translate(43.283 373.372)" fill="#87e3ff"/>
        <rect id="Rectangle_1880" data-name="Rectangle 1880" width="46.085" height="16.029" transform="translate(60.315 424.83)" fill="#87e3ff"/>
        <path id="Path_12509" data-name="Path 12509" d="M2631.032,2685.373a8.488,8.488,0,0,1,6.553,2.414c2.553,2.81,17.448,17.7,17.448,17.7s2.213,2.382,2.467,4.255a6.586,6.586,0,0,1,0,2.638h-26.468Z" transform="translate(-2534.959 -2312)" fill="#87e3ff"/>
      </g>
    </g>
  </g>
</svg>
