<svg id="freeze" xmlns="http://www.w3.org/2000/svg" width="16.985" height="16.985" viewBox="0 0 16.985 16.985">
  <g id="Group_5984" data-name="Group 5984">
    <g id="Group_5983" data-name="Group 5983">
      <path id="Path_13566" data-name="Path 13566" d="M11.182,15.959,9.218,14v-2.7a2.84,2.84,0,0,0,.739-.308l2.162,2.162v2.6h1.451V13.571h2.176V12.12h-2.6L10.983,9.957a2.84,2.84,0,0,0,.308-.739H14l1.964,1.964,1.026-1.026L15.322,8.493l1.663-1.663L15.959,5.8,14,7.767h-2.7a2.829,2.829,0,0,0-.1-.312l1.941-1.864h2.612V4.14H13.571V1.964H12.12V4.556L10.334,6.269a2.881,2.881,0,0,0-1.116-.575v-2.7l1.964-1.964L10.156,0,8.493,1.663,6.829,0,5.8,1.026,7.767,2.989v2.7a2.9,2.9,0,0,0-.748.313L4.865,3.922V1.238H3.415V3.48L1.26,3.415,1.217,4.865l2.62.079L6,7.037a2.861,2.861,0,0,0-.3.73h-2.7L1.026,5.8,0,6.829,1.663,8.493,0,10.156l1.026,1.026L2.989,9.218h2.7A2.84,2.84,0,0,0,6,9.957L3.84,12.12h-2.6v1.451H3.415v2.176H4.865v-2.6l2.162-2.162a2.84,2.84,0,0,0,.739.308V14L5.8,15.959l1.026,1.026,1.663-1.663,1.663,1.663ZM7.042,8.493A1.451,1.451,0,1,1,8.493,9.943,1.451,1.451,0,0,1,7.042,8.493Z" fill="#f70"/>
    </g>
  </g>
</svg>
