<svg xmlns="http://www.w3.org/2000/svg" width="16.646" height="16.637" viewBox="0 0 16.646 16.637">
  <g id="Group_5930" data-name="Group 5930" transform="translate(479.249 -338.299)">
    <path id="Path_13434" data-name="Path 13434" d="M-470.864,338.9c.206,0,.413,0,.619,0a.676.676,0,0,1,.714.687.674.674,0,0,1-.719.656,8.82,8.82,0,0,0-2.455.237,6.9,6.9,0,0,0-5.1,5.987,6.906,6.906,0,0,0,5.644,7.5,6.939,6.939,0,0,0,8.1-5.748,6.76,6.76,0,0,0-.046-2.258.714.714,0,0,1,.558-.874.7.7,0,0,1,.827.644,8.128,8.128,0,0,1-2.377,7.4,7.933,7.933,0,0,1-5.209,2.338,8.3,8.3,0,0,1-8.817-6.92,8.31,8.31,0,0,1,5.711-9.274A8.475,8.475,0,0,1-470.864,338.9Z" transform="translate(0 -0.56)" fill="#f70"/>
    <path id="Path_13435" data-name="Path 13435" d="M-391.769,391.7c0,.436,0,.421.408.545a2.143,2.143,0,0,1,1.655,1.71.724.724,0,0,1-.567.893.706.706,0,0,1-.8-.675.609.609,0,0,0-.385-.507,2.53,2.53,0,0,0-2-.007.544.544,0,0,0-.384.5.583.583,0,0,0,.406.515,2.719,2.719,0,0,0,1.089.181,3.1,3.1,0,0,1,1.8.523,1.872,1.872,0,0,1,.759,2.121,2.04,2.04,0,0,1-1.248,1.253,2.88,2.88,0,0,1-.353.112c-.379.1-.379.1-.38.51a2.7,2.7,0,0,1-.011.444.7.7,0,0,1-.731.569.694.694,0,0,1-.644-.689,5.182,5.182,0,0,1,0-.543c.013-.167-.05-.214-.212-.249a2.2,2.2,0,0,1-1.8-1.536.993.993,0,0,1-.038-.653.692.692,0,0,1,.723-.481.691.691,0,0,1,.623.606.682.682,0,0,0,.487.62,2.6,2.6,0,0,0,1.816,0,.6.6,0,0,0,.461-.5c.013-.259-.2-.419-.421-.531a2.36,2.36,0,0,0-1.059-.2,3.187,3.187,0,0,1-1.656-.426,2,2,0,0,1-.992-1.434,1.637,1.637,0,0,1,.358-1.273,2.377,2.377,0,0,1,1.537-.908c.136-.024.177-.066.171-.2-.01-.205-.008-.412,0-.617a.688.688,0,0,1,.706-.676.691.691,0,0,1,.679.678C-391.766,391.485-391.769,391.593-391.769,391.7Z" transform="translate(-78.456 -48.938)" fill="#f70"/>
    <path id="Path_13436" data-name="Path 13436" d="M-309.832,340.777l1.819-1.812c.134-.134.267-.27.4-.4a.707.707,0,0,1,1.051-.054.7.7,0,0,1-.073,1.049q-1.034,1.03-2.071,2.058a.723.723,0,0,1-.124.081l.029.066c.324,0,.648,0,.972,0a.7.7,0,0,1,.768.69.7.7,0,0,1-.765.693q-1.313,0-2.626,0a.706.706,0,0,1-.77-.767q0-1.31,0-2.62a.7.7,0,0,1,.692-.767.7.7,0,0,1,.7.763C-309.831,340.077-309.832,340.4-309.832,340.777Z" transform="translate(-156.925 0)" fill="#f70"/>
  </g>
</svg>
