<svg xmlns="http://www.w3.org/2000/svg" width="16.555" height="10.552" viewBox="0 0 16.555 10.552">
  <g id="view" transform="translate(0 -92.835)">
    <g id="Group_5980" data-name="Group 5980" transform="translate(0 92.835)">
      <g id="Group_5979" data-name="Group 5979" transform="translate(0)">
        <path id="Path_13564" data-name="Path 13564" d="M16.45,97.789c-.148-.2-3.672-4.954-8.173-4.954S.253,97.587.105,97.789a.546.546,0,0,0,0,.644c.148.2,3.672,4.954,8.173,4.954s8.025-4.752,8.173-4.954A.546.546,0,0,0,16.45,97.789ZM8.278,102.3c-3.315,0-6.187-3.154-7.037-4.185.849-1.032,3.714-4.184,7.037-4.184s6.186,3.153,7.037,4.185C14.465,99.143,11.6,102.3,8.278,102.3Z" transform="translate(0 -92.835)" fill="#f70"/>
      </g>
    </g>
    <g id="Group_5982" data-name="Group 5982" transform="translate(5.003 94.836)">
      <g id="Group_5981" data-name="Group 5981" transform="translate(0 0)">
        <path id="Path_13565" data-name="Path 13565" d="M158,154.725A3.275,3.275,0,1,0,161.271,158,3.278,3.278,0,0,0,158,154.725Zm0,5.458A2.183,2.183,0,1,1,160.18,158,2.186,2.186,0,0,1,158,160.183Z" transform="translate(-154.722 -154.725)" fill="#f70"/>
      </g>
    </g>
  </g>
</svg>
